<svg xmlns="http://www.w3.org/2000/svg" version="1.1" xmlns:xlink="http://www.w3.org/1999/xlink" xmlns:svgjs="http://svgjs.dev/svgjs" width="100%" height="100%" viewBox="0 0 1000 600"><rect width="1000" height="600" x="0" y="0" fill="#234e70"/><g><rect width="333.3333333333333" height="333.3333333333333" rx="13.333333333333334" ry="13.333333333333334" y="77.7777739630807" fill="#f4a226" transform="matrix(2.2499999313354513,0,0,2.2499999313354517,0,-249.99999084472722)" x="55.55555725097656"/><path d="M192.0135403080686 175.96282389762547L94.18633521390811 175.96282389762547L94.18633521390811 169.44444547022948L192.0135403080686 169.44444547022948L192.0135403080686 175.96282389762547ZM192.0135403080686 188.99958075241747L94.18633521390811 188.99958075241747L94.18633521390811 182.4812023250215L192.0135403080686 182.4812023250215L192.0135403080686 188.99958075241747ZM120.28561326510236 202.06210194881973L94.18633521390811 202.06210194881973L94.18633521390811 195.54372352142374L192.0135403080686 195.54372352142374L192.0135403080686 202.06210194881973L165.94002659848462 202.06210194881973L165.94002659848462 319.4444423251682L159.42164817108863 319.4444423251682L159.42164817108863 202.06210194881973L152.90326974369262 202.06210194881973L152.90326974369262 319.4444423251682L146.35912697468638 319.4444423251682L146.35912697468638 202.06210194881973L139.84074854729033 202.06210194881973L139.84074854729033 319.4444423251682L133.32237011989434 319.4444423251682L133.32237011989434 202.06210194881973L126.80399169249836 202.06210194881973L126.80399169249836 319.4444423251682L120.28561326510236 319.4444423251682L120.28561326510236 202.06210194881973ZM257.50649668135173 254.9562952746853L257.50649668135173 248.4379168472893L295.38007884843523 248.4379168472893Q304.70677051134965 248.4379168472893 311.17362025552507 242.12565315277536Q317.6662343413108 235.83915379987175 317.6662343413108 224.34825744169538L317.6662343413108 224.34825744169538Q317.6662343413108 215.74296734386823 310.864448156202 208.88965247553884Q304.0626619710931 202.06210194881973 295.38007884843523 202.06210194881973L295.38007884843523 202.06210194881973L239.39416452933835 202.06210194881973L239.39416452933835 319.4444423251682L232.87578610194234 319.4444423251682L232.87578610194234 195.54372352142374L295.38007884843523 195.54372352142374Q306.79368218178075 195.54372352142374 315.4762653044387 204.3293640105227Q324.1846127687068 213.11500449962162 324.1846127687068 224.34825744169538L324.1846127687068 224.34825744169538Q324.1846127687068 238.18370888640547 315.75967306215153 246.58288425135052Q307.33473335559626 254.9562952746853 295.38007884843523 254.9562952746853L295.38007884843523 254.9562952746853L257.50649668135173 254.9562952746853ZM257.50649668135173 267.9930521294773L257.50649668135173 261.4746737020813L295.38007884843523 261.4746737020813Q304.7840635361804 261.4746737020813 312.7967737769715 256.8886208954549Q320.83524835937294 252.32833243043868 325.75623760693276 243.72304233261153Q330.70299119610286 235.11775223478443 330.70299119610286 224.34825744169538L330.70299119610286 224.34825744169538Q330.70299119610286 210.383984288934 320.0623181110651 199.69178252067573Q309.42164502602736 188.99958075241747 295.38007884843523 188.99958075241747L295.38007884843523 188.99958075241747L226.35740767454632 188.99958075241747L226.35740767454632 319.4444423251682L219.83902924715034 319.4444423251682L219.83902924715034 182.4812023250215L295.38007884843523 182.4812023250215Q306.3299240327961 182.4812023250215 316.01731647825414 188.2781791873302Q325.70470892371225 194.07515604963888 331.4759214444107 203.7883128367072Q337.22136962349884 213.4757052821653 337.22136962349884 224.34825744169538L337.22136962349884 224.34825744169538Q337.22136962349884 236.66361273140004 331.4243927611901 246.76323464262234Q325.62741589888145 256.8628565538446 316.0688451614747 262.4279543416609Q306.5102744240679 267.9930521294773 295.38007884843523 267.9930521294773L295.38007884843523 267.9930521294773L257.50649668135173 267.9930521294773ZM257.50649668135173 281.02980898426927L257.50649668135173 274.5114305568733L295.38007884843523 274.5114305568733Q305.0674712938933 274.5114305568733 313.93040480782304 270.6725436569444Q322.81910266336297 266.80789241540526 329.3890097739795 260.263749646399Q335.9589168845961 253.69384253578252 339.8493324677454 244.31562218964754Q343.73974805089483 234.93740184351262 343.73974805089483 224.34825744169538L343.73974805089483 224.34825744169538Q343.73974805089483 211.64643702783675 337.1183122570578 200.46471276898356Q330.52264080483104 189.28298851013037 319.34091654597785 182.63578837468305Q308.1334279455143 175.96282389762547 295.38007884843523 175.96282389762547L295.38007884843523 175.96282389762547L213.32065081975435 175.96282389762547L213.32065081975435 319.4444423251682L206.77650805074808 319.4444423251682L206.77650805074808 169.44444547022948L295.38007884843523 169.44444547022948Q309.85963883340185 169.44444547022948 322.53569490565013 177.0191619036462Q335.23751531950876 184.5681139954526 342.7349387280947 197.24417006770094Q350.2581264782908 209.94599048155956 350.2581264782908 224.34825744169538L350.2581264782908 224.34825744169538Q350.2581264782908 237.20466390521554 345.826659721326 248.0256873815251Q341.3951929643611 258.84671085783464 333.8720052141649 266.00919782548726Q326.34881746396877 273.17168479313966 316.37801726079783 277.0878647178994Q306.43298139923706 281.02980898426927 295.38007884843523 281.02980898426927L295.38007884843523 281.02980898426927L257.50649668135173 281.02980898426927ZM252.43092138413036 215.0988588036117L252.43092138413036 319.4444423251682L245.91254295673434 319.4444423251682L245.91254295673434 208.58048037621572L295.38007884843523 208.58048037621572Q301.7953999093902 208.58048037621572 306.4587457408474 213.29535489089344Q311.1220915723046 217.98446506396093 311.1220915723046 224.34825744169538L311.1220915723046 224.34825744169538Q311.1220915723046 241.91953841989326 295.38007884843523 241.91953841989326L295.38007884843523 241.91953841989326L257.50649668135173 241.91953841989326L257.50649668135173 235.37539565088704L295.38007884843523 235.37539565088704Q299.70848823895903 235.37539565088704 302.15610069193383 232.95354753952253Q304.6037131449086 230.50593508654774 304.6037131449086 224.34825744169538L304.6037131449086 224.34825744169538Q304.6037131449086 220.35478449210493 301.94998595905173 217.72682164785832Q299.27049443158455 215.0988588036117 295.38007884843523 215.0988588036117L295.38007884843523 215.0988588036117L252.43092138413036 215.0988588036117Z " fill="#234e70" transform="matrix(2.2499999313354513,0,0,2.2499999313354517,0,-249.99999084472722)"/><path d="MNaN 244.4444461398655 " fill="#fbf8be" transform="matrix(2.2499999313354513,0,0,2.2499999313354517,0,-249.99999084472722)"/></g></svg>