<svg xmlns="http://www.w3.org/2000/svg" version="1.1" xmlns:xlink="http://www.w3.org/1999/xlink" xmlns:svgjs="http://svgjs.dev/svgjs" width="100%" height="100%" viewBox="0 0 1000 600"><rect width="1000" height="600" x="0" y="0" fill="#234e70"/><g><rect width="333.3333333333333" height="333.3333333333333" rx="13.333333333333334" ry="13.333333333333334" y="282.67092302913466" fill="#f4a226" transform="matrix(0.4799409447665619,0,0,0.4799409447665619,0,84.34448154425245)" x="260.4486999511718"/><path d="M396.9066931807899 380.85597458447313L299.0794880866294 380.85597458447313L299.0794880866294 374.33759615707714L396.9066931807899 374.33759615707714L396.9066931807899 380.85597458447313ZM396.9066931807899 393.8927314392651L299.0794880866294 393.8927314392651L299.0794880866294 387.3743530118691L396.9066931807899 387.3743530118691L396.9066931807899 393.8927314392651ZM325.1787661378237 406.95525263566736L299.0794880866294 406.95525263566736L299.0794880866294 400.4368742082714L396.9066931807899 400.4368742082714L396.9066931807899 406.95525263566736L370.83317947120594 406.95525263566736L370.83317947120594 524.3375930120159L364.31480104380995 524.3375930120159L364.31480104380995 406.95525263566736L357.79642261641396 406.95525263566736L357.79642261641396 524.3375930120159L351.2522798474077 524.3375930120159L351.2522798474077 406.95525263566736L344.73390142001165 406.95525263566736L344.73390142001165 524.3375930120159L338.21552299261566 524.3375930120159L338.21552299261566 406.95525263566736L331.6971445652197 406.95525263566736L331.6971445652197 524.3375930120159L325.1787661378237 524.3375930120159L325.1787661378237 406.95525263566736ZM462.39964955407305 459.8494459615329L462.39964955407305 453.33106753413693L500.27323172115655 453.33106753413693Q509.5999233840709 453.33106753413693 516.0667731282465 447.018803839623Q522.5593872140321 440.7323044867194 522.5593872140321 429.241408128543L522.5593872140321 429.241408128543Q522.5593872140321 420.63611803071586 515.7576010289233 413.7828031623865Q508.95581484381444 406.95525263566736 500.27323172115655 406.95525263566736L500.27323172115655 406.95525263566736L444.28731740205967 406.95525263566736L444.28731740205967 524.3375930120159L437.7689389746636 524.3375930120159L437.7689389746636 400.4368742082714L500.27323172115655 400.4368742082714Q511.68683505450207 400.4368742082714 520.36941817716 409.22251469737034Q529.0777656414282 418.00815518646925 529.0777656414282 429.241408128543L529.0777656414282 429.241408128543Q529.0777656414282 443.0768595732531 520.6528259348729 451.47603493819815Q512.2278862283176 459.8494459615329 500.27323172115655 459.8494459615329L500.27323172115655 459.8494459615329L462.39964955407305 459.8494459615329ZM462.39964955407305 472.88620281632495L462.39964955407305 466.3678243889289L500.27323172115655 466.3678243889289Q509.67721640890176 466.3678243889289 517.6899266496928 461.7817715823025Q525.7284012320943 457.2214831172863 530.6493904796541 448.61619301945916Q535.5961440688243 440.01090292163207 535.5961440688243 429.241408128543L535.5961440688243 429.241408128543Q535.5961440688243 415.2771349757816 524.9554709837864 404.58493320752336Q514.3147978987488 393.8927314392651 500.27323172115655 393.8927314392651L500.27323172115655 393.8927314392651L431.25056054726764 393.8927314392651L431.25056054726764 524.3375930120159L424.73218211987165 524.3375930120159L424.73218211987165 387.3743530118691L500.27323172115655 387.3743530118691Q511.2230769055174 387.3743530118691 520.9104693509755 393.17132987417784Q530.5978617964336 398.9683067364865 536.3690743171321 408.68146352355484Q542.1145224962202 418.36885596901294 542.1145224962202 429.241408128543L542.1145224962202 429.241408128543Q542.1145224962202 441.55676341824767 536.3175456339115 451.65638532946997Q530.5205687716027 461.7560072406922 520.9619980341961 467.32110502850855Q511.4034272967892 472.88620281632495 500.27323172115655 472.88620281632495L500.27323172115655 472.88620281632495L462.39964955407305 472.88620281632495ZM462.39964955407305 485.9229596711169L462.39964955407305 479.40458124372094L500.27323172115655 479.40458124372094Q509.9606241666146 479.40458124372094 518.8235576805444 475.5656943437921Q527.7122555360843 471.7010431022529 534.282162646701 465.15690033324665Q540.8520697573174 458.58699322263016 544.7424853404668 449.2087728764952Q548.6329009236163 439.83055253036025 548.6329009236163 429.241408128543L548.6329009236163 429.241408128543Q548.6329009236163 416.5395877146844 542.0114651297793 405.3578634558312Q535.4157936775523 394.176139196978 524.2340694186992 387.52893906153065Q513.0265808182357 380.85597458447313 500.27323172115655 380.85597458447313L500.27323172115655 380.85597458447313L418.21380369247566 380.85597458447313L418.21380369247566 524.3375930120159L411.6696609234694 524.3375930120159L411.6696609234694 374.33759615707714L500.27323172115655 374.33759615707714Q514.7527917061232 374.33759615707714 527.4288477783714 381.9123125904938Q540.1306681922301 389.4612646823002 547.6280916008161 402.13732075454857Q555.1512793510121 414.8391411684072 555.1512793510121 429.241408128543L555.1512793510121 429.241408128543Q555.1512793510121 442.0978145920632 550.7198125940474 452.91883806837274Q546.2883458370825 463.7398615446823 538.7651580868862 470.90234851233487Q531.2419703366902 478.0648354799873 521.2711701335193 481.98101540474704Q511.32613427195844 485.9229596711169 500.27323172115655 485.9229596711169L500.27323172115655 485.9229596711169L462.39964955407305 485.9229596711169ZM457.3240742568517 419.99200949045934L457.3240742568517 524.3375930120159L450.80569582945566 524.3375930120159L450.80569582945566 413.47363106306335L500.27323172115655 413.47363106306335Q506.68855278211146 413.47363106306335 511.3518986135687 418.18850557774107Q516.0152444450259 422.87761575080856 516.0152444450259 429.241408128543L516.0152444450259 429.241408128543Q516.0152444450259 446.8126891067409 500.27323172115655 446.8126891067409L500.27323172115655 446.8126891067409L462.39964955407305 446.8126891067409L462.39964955407305 440.2685463377347L500.27323172115655 440.2685463377347Q504.6016411116803 440.2685463377347 507.04925356465515 437.84669822637017Q509.4968660176299 435.39908577339537 509.4968660176299 429.241408128543L509.4968660176299 429.241408128543Q509.4968660176299 425.24793517895256 506.84313883177305 422.61997233470595Q504.1636473043059 419.99200949045934 500.27323172115655 419.99200949045934L500.27323172115655 419.99200949045934L457.3240742568517 419.99200949045934Z " fill="#234e70" transform="matrix(0.4799409447665619,0,0,0.4799409447665619,0,84.34448154425245)"/><path d="M767.1201193507401 386.3319080568252L677.1153767801163 386.3319080568252L677.1153767801163 380.3347524417692L767.1201193507401 380.3347524417692L767.1201193507401 386.3319080568252ZM767.1201193507401 398.3262192869373L677.1153767801163 398.3262192869373L677.1153767801163 392.3290636718813L767.1201193507401 392.3290636718813L767.1201193507401 398.3262192869373ZM701.127703412732 410.34423468944095L677.1153767801163 410.34423468944095L677.1153767801163 404.3470790743849L767.1201193507401 404.3470790743849L767.1201193507401 410.34423468944095L743.1314968905159 410.34423468944095L743.1314968905159 518.3404441052328L737.1343412754599 518.3404441052328L737.1343412754599 410.34423468944095L731.1371856604038 410.34423468944095L731.1371856604038 518.3404441052328L725.1163258729562 518.3404441052328L725.1163258729562 410.34423468944095L719.1191702579001 410.34423468944095L719.1191702579001 518.3404441052328L713.1220146428441 518.3404441052328L713.1220146428441 410.34423468944095L707.124859027788 410.34423468944095L707.124859027788 518.3404441052328L701.127703412732 518.3404441052328L701.127703412732 410.34423468944095ZM865.6346598099216 477.83001348811507L840.2948995233804 477.83001348811507L842.712725107316 471.832857873059L863.216834225986 471.832857873059L865.6346598099216 477.83001348811507ZM870.4703109777928 489.8480288906187L835.6251775622499 489.8480288906187L837.9718906290109 483.85087327556266L867.8865561871165 483.85087327556266L870.4703109777928 489.8480288906187ZM875.1400329389235 501.8423401207308L830.9554556011192 501.8423401207308L833.3021686678803 495.84518450567475L872.6273906654217 495.84518450567475L875.1400329389235 501.8423401207308ZM833.5392103917955 388.41787522727947L782.219677164142 518.3404441052328L775.7010297564724 518.3404441052328L830.2917387741566 380.3347524417692L836.7866820094346 380.3347524417692L891.3062785099441 518.3404441052328L884.8824477918406 518.3404441052328L833.5392103917955 388.41787522727947ZM788.6198037098541 518.3404441052328L834.2977439083244 402.66408283458657L837.711144732704 410.34423468944095L795.0436344279575 518.3404441052328L788.6198037098541 518.3404441052328ZM801.5385776632356 518.3404441052328L840.9586163503432 418.4984699921258L844.1349754508076 426.7475219843768L808.0572250709052 518.3404441052328L801.5385776632356 518.3404441052328ZM814.4573516166172 518.3404441052328L847.2876303788805 434.9965739766279L850.463989479345 443.4115551756195L820.8811823347207 518.3404441052328L814.4573516166172 518.3404441052328ZM875.4718913524048 380.3347524417692L930.0388961976973 518.3404441052328L923.5439529624193 518.3404441052328L869.0480606343012 380.3347524417692L875.4718913524048 380.3347524417692ZM856.1292866809197 380.3347524417692L862.5531173990232 380.3347524417692L917.1201222443158 518.3404441052328L910.7199956986037 518.3404441052328L856.1292866809197 380.3347524417692ZM843.2105127275381 380.3347524417692L849.6343434456417 380.3347524417692L904.2250524633257 518.3404441052328L897.7064050556561 518.3404441052328L843.2105127275381 380.3347524417692ZM996.2920580320122 434.33285714966513L996.2920580320122 434.33285714966513L986.2177847656137 434.33285714966513Q979.7939540475102 434.33285714966513 976.9731575329185 431.03797718724303Q974.1286568459354 427.7668013972125 974.1286568459354 422.33854591955304L974.1286568459354 422.33854591955304Q974.1286568459354 410.34423468944095 992.0490111739291 410.34423468944095L992.0490111739291 410.34423468944095Q1008.8789735719124 410.34423468944095 1017.3887714604703 415.3458150640529L1017.3887714604703 415.3458150640529L1012.5531202925989 418.9962576123479Q1006.7218938842835 416.341390304497 992.0490111739291 416.341390304497L992.0490111739291 416.341390304497Q984.8903511116882 416.341390304497 982.4251171829695 417.9295698547292Q979.9598832542508 419.49404523256993 979.9598832542508 422.33854591955304Q979.9598832542508 425.18304660653615 981.2873169081763 426.7475219843768Q982.6384547344933 428.3357015346091 986.2177847656137 428.3357015346091L986.2177847656137 428.3357015346091L996.552803928319 428.3357015346091Q1007.7885816419022 428.3357015346091 1016.8435754954651 432.17577746203625Q1025.8748651766364 436.0158533894635 1031.706091584952 442.62931748669916Q1037.5610221656589 449.26648575632646 1040.642564576557 457.8711003344503Q1043.7241069874558 466.4994190849657 1043.7241069874558 476.336650627449L1043.7241069874558 476.336650627449Q1043.7241069874558 484.3486608957847 1041.4722106102604 491.5073209580255Q1039.2203142330654 498.6659810202664 1034.6691131338926 504.6631366353224Q1030.1416162071114 510.68399642276995 1023.7651938337906 515.0455641428107Q1017.3887714604703 519.430836035243 1008.5945235032141 521.8723657915702Q999.800275545958 524.3375997202888 989.5600730728188 524.3375997202888L989.5600730728188 524.3375997202888Q973.4649400189728 524.3375997202888 959.4320699631894 519.4545402076345Q945.3754957350145 514.5951848673717 936.0597559851449 505.8483452548987L936.0597559851449 505.8483452548987L940.8717029806246 502.24531105138675Q949.3815008691824 509.92546290624114 962.1817539606066 514.1211014195412Q974.958302879639 518.3404441052328 989.5600730728188 518.3404441052328L989.5600730728188 518.3404441052328Q1000.9617799931427 518.3404441052328 1010.1827030534464 515.0455641428107Q1019.3799219413584 511.7506841803886 1025.3296692116314 506.0142744616394Q1031.303120654296 500.2541605704986 1034.503183927152 492.6688254052103Q1037.7269513723995 485.083490239922 1037.7269513723995 476.336650627449L1037.7269513723995 476.336650627449Q1037.7269513723995 464.7453103279928 1033.057229411269 455.38216223334007Q1028.3875074501384 445.99530996629585 1018.8347259763533 440.1640835579805Q1009.3056486749599 434.33285714966513 996.2920580320122 434.33285714966513ZM986.2177847656137 440.3300127647212L986.2177847656137 440.3300127647212L995.7231578946155 440.3300127647212Q1012.6242328097735 440.3300127647212 1022.1770142835585 450.66503192742647Q1031.706091584952 461.0000510901317 1031.706091584952 476.336650627449L1031.706091584952 476.336650627449Q1031.706091584952 491.933996061073 1020.6362430781093 502.12679018942913Q1009.5426903988752 512.3432884901767 989.5600730728188 512.3432884901767L989.5600730728188 512.3432884901767Q976.2146240163897 512.3432884901767 964.6232837169337 508.66914176949024Q953.055647589869 504.99499504880373 945.3754957350145 498.334122606785L945.3754957350145 498.334122606785L950.0452176961452 494.5888633689239Q956.8720193449046 500.183048053324 967.2544468523929 503.26459046422235Q977.6368743598813 506.3461328751207 989.5600730728188 506.3461328751207L989.5600730728188 506.3461328751207Q1007.1248648149395 506.3461328751207 1016.4169003924176 497.93115167612905Q1025.7089359698957 489.5161704771374 1025.7089359698957 476.336650627449L1025.7089359698957 476.336650627449Q1025.7089359698957 463.3467641568928 1017.9339674254752 454.836966268335Q1010.1352947086632 446.3271683797772 995.6283412050494 446.3271683797772L995.6283412050494 446.3271683797772L986.2177847656137 446.3271683797772Q974.057544328761 446.3271683797772 967.9655720241387 439.66629593775843Q961.8735997195166 433.0054234957397 961.8735997195166 422.33854591955304Q961.8735997195166 411.6716683433664 969.4352307124134 405.01079590134765Q976.9731575329185 398.3262192869373 992.0490111739291 398.3262192869373L992.0490111739291 398.3262192869373Q1002.6210720605496 398.3262192869373 1011.7234742588955 400.791453215656Q1020.8021722848499 403.2566871443747 1026.7282153827314 407.8315924159392L1026.7282153827314 407.8315924159392L1021.9636767320347 411.5057391366257Q1011.5575450521549 404.3470790743849 992.0490111739291 404.3470790743849L992.0490111739291 404.3470790743849Q979.4620956340289 404.3470790743849 973.6782775704964 409.3012511042138Q967.8707553345727 414.2554231340427 967.8707553345727 422.33854591955304L967.8707553345727 422.33854591955304Q967.8707553345727 430.51648539462946 972.1849147098303 435.4232490796753Q976.4753699126966 440.3300127647212 986.2177847656137 440.3300127647212ZM986.2177847656137 452.3480281672248L986.2177847656137 452.3480281672248L995.3912994811342 452.3480281672248Q1007.5515399179869 452.3480281672248 1013.6435122226092 459.0800131264181Q1019.7117803548397 465.83570225800304 1019.7117803548397 476.336650627449L1019.7117803548397 476.336650627449Q1019.7117803548397 487.0035282036356 1012.1738535343345 493.6644006456544Q1004.6359267138292 500.34897726006466 989.5600730728188 500.34897726006466L989.5600730728188 500.34897726006466Q978.9643080138067 500.34897726006466 969.8382016430693 497.883743331346Q960.7120952723319 495.4185094026273 954.8097563468419 490.8436041310628L954.8097563468419 490.8436041310628L959.5505908251471 487.1694574103763Q969.9567225050268 494.3281174726171 989.5600730728188 494.3281174726171L989.5600730728188 494.3281174726171Q1002.1232844403276 494.3281174726171 1007.9308066762514 489.3739454427882Q1013.7146247397836 484.41977341295933 1013.7146247397836 476.336650627449Q1013.7146247397836 468.25352784193865 1009.3767611921344 463.29935581210975Q1005.0388976444851 458.34518378228086 995.296482791568 458.34518378228086L995.296482791568 458.34518378228086L986.2177847656137 458.34518378228086Q969.1270764713236 458.34518378228086 959.5031824803641 448.1286854815332Q949.8792884894044 437.9121871807855 949.8792884894044 422.33854591955304Q949.8792884894044 406.7649046583205 960.9728411686386 396.5484063575729Q972.0426896754811 386.3319080568252 992.0490111739291 386.3319080568252L992.0490111739291 386.3319080568252Q1005.3944602303582 386.3319080568252 1016.9146880126398 390.00605477751174Q1028.458619967313 393.68020149819824 1036.1387718221672 400.34107394021703L1036.1387718221672 400.34107394021703L1031.4690498610366 404.08633317807806Q1024.642248212277 398.5158526660695 1014.3072290495718 395.4106060827796Q1003.9722098868666 392.3290636718813 992.0490111739291 392.3290636718813L992.0490111739291 392.3290636718813Q974.4605152594169 392.3290636718813 965.1684796819387 400.744044870873Q955.8764441044605 409.1827302422562 955.8764441044605 422.33854591955304L955.8764441044605 422.33854591955304Q955.8764441044605 435.4232490796753 963.7225251660557 443.88563862345006Q971.5449020552592 452.3480281672248 986.2177847656137 452.3480281672248ZM986.2177847656137 464.3423393973369L986.2177847656137 464.3423393973369L995.3912994811342 464.3423393973369Q1001.7914260268462 464.3423393973369 1004.6359267138292 467.6609235321505Q1007.4567232284209 471.0032118393557 1007.4567232284209 476.336650627449L1007.4567232284209 476.336650627449Q1007.4567232284209 488.3309618575611 989.5600730728188 488.3309618575611L989.5600730728188 488.3309618575611Q972.6352939852693 488.3309618575611 964.1254960967116 483.3293814829491L964.1254960967116 483.3293814829491L968.9611472645829 479.6789389346541Q974.7923736728983 482.33380624250503 989.5600730728188 482.33380624250503L989.5600730728188 482.33380624250503Q996.7187331350597 482.33380624250503 999.1839670637783 480.7456266922728Q1001.6254968201056 479.1811513144321 1001.6254968201056 476.336650627449L1001.6254968201056 476.336650627449Q1001.6254968201056 473.58696663003195 1000.250654821397 471.9750829074082Q998.8758128226884 470.33949501239294 995.2253702743935 470.33949501239294L995.2253702743935 470.33949501239294L986.2177847656137 470.33949501239294Q974.7212611557236 470.33949501239294 965.4292255782455 466.59423577453185Q956.1371900007673 462.84897653667076 950.1637385581029 456.25921661182656Q944.2139912878298 449.66945668698236 941.0376321873654 440.9937295916839Q937.8849772592924 432.34170666877696 937.8849772592924 422.33854591955304L937.8849772592924 422.33854591955304Q937.8849772592924 414.3265356512173 940.1368736364874 407.1678755889765Q942.3887700136823 400.00921552673566 946.9162669404637 394.0120599116796Q951.4674680396367 388.01490429662357 957.8438904129572 383.6296324041913Q964.2203127862776 379.244360511759 973.0145607435338 376.80283075543184Q981.8088087007899 374.33759682671314 992.0490111739291 374.33759682671314L992.0490111739291 374.33759682671314Q1008.1441442277751 374.33759682671314 1022.1296059387753 379.2206563393675Q1036.1387718221672 384.0800116796303 1045.4782157444283 392.8268512921033L1045.4782157444283 392.8268512921033L1040.642564576557 396.4298854956152Q1032.1327666879993 388.7497336407609 1019.3799219413584 384.5540951274608Q1006.6270771947175 380.3347524417692 992.0490111739291 380.3347524417692L992.0490111739291 380.3347524417692Q980.6236000812136 380.3347524417692 971.4263811933015 383.6296324041913Q962.205458132998 386.9245123666134 956.255710862725 392.66092208536264Q950.3059635924519 398.42103597650345 947.0821961472045 406.0063711417917Q943.8821328743485 413.59170630708 943.8821328743485 422.33854591955304L943.8821328743485 422.33854591955304Q943.8821328743485 434.0958154257499 948.6229673526536 443.50637186518566Q953.3875060033504 452.9169283046214 963.1299208562675 458.62963385097913Q972.8723357091847 464.3423393973369 986.2177847656137 464.3423393973369ZM1098.9785328321022 380.3347524417692L1098.9785328321022 518.3404441052328L1092.9576730446547 518.3404441052328L1092.9576730446547 380.3347524417692L1098.9785328321022 380.3347524417692ZM1086.960517429599 380.3347524417692L1086.960517429599 518.3404441052328L1080.9633618145426 518.3404441052328L1080.9633618145426 380.3347524417692L1086.960517429599 380.3347524417692ZM1074.9662061994868 380.3347524417692L1074.9662061994868 518.3404441052328L1068.9690505844305 518.3404441052328L1068.9690505844305 380.3347524417692L1074.9662061994868 380.3347524417692ZM1062.9718949693747 380.3347524417692L1062.9718949693747 518.3404441052328L1056.9747393543184 518.3404441052328L1056.9747393543184 380.3347524417692L1062.9718949693747 380.3347524417692ZM1178.0556519302327 518.3404441052328L1142.8075475840337 449.337598273501L1178.0556519302327 380.3347524417692L1184.7165243722516 380.3347524417692L1149.4684200260526 449.337598273501L1184.7165243722516 518.3404441052328L1178.0556519302327 518.3404441052328ZM1164.639090356629 518.3404441052328L1129.39098601043 449.337598273501L1164.639090356629 380.3347524417692L1171.2999627986478 380.3347524417692L1136.0518584524489 449.337598273501L1171.2999627986478 518.3404441052328L1164.639090356629 518.3404441052328ZM1151.2225287830252 518.3404441052328L1115.9744244368262 449.337598273501L1151.2225287830252 380.3347524417692L1157.883401225044 380.3347524417692L1122.635296878845 449.337598273501L1157.883401225044 518.3404441052328L1151.2225287830252 518.3404441052328ZM1137.8059672094219 518.3404441052328L1102.4630461736565 449.337598273501L1137.8059672094219 380.3347524417692L1144.4668396514403 380.3347524417692L1109.1239186156754 449.337598273501L1144.4668396514403 518.3404441052328L1137.8059672094219 518.3404441052328ZM1316.8909896273994 459.00890060924354L1316.8909896273994 453.0117449941875L1351.7124188705511 453.0117449941875Q1360.317033448675 453.0117449941875 1366.2667807189482 447.20422275826365Q1372.216527989221 441.42040469473136 1372.216527989221 430.8483438081108L1372.216527989221 430.8483438081108Q1372.216527989221 422.9311502293412 1365.9823306502499 416.6258403731953Q1359.724429138887 410.34423468944095 1351.7124188705511 410.34423468944095L1351.7124188705511 410.34423468944095L1300.2269564361568 410.34423468944095L1300.2269564361568 518.3404441052328L1294.229800821101 518.3404441052328L1294.229800821101 404.3470790743849L1351.7124188705511 404.3470790743849Q1362.2133672399973 404.3470790743849 1370.2253775083332 412.4302018598952Q1378.2136836042773 420.51332464540553 1378.2136836042773 430.8483438081108L1378.2136836042773 430.8483438081108Q1378.2136836042773 443.57748438236024 1370.462419232248 451.30504458199766Q1362.7348590326105 459.00890060924354 1351.7124188705511 459.00890060924354L1351.7124188705511 459.00890060924354L1316.8909896273994 459.00890060924354ZM1316.8909896273994 471.0032118393557L1316.8909896273994 465.00605622429964L1351.7124188705511 465.00605622429964Q1360.3881459658496 465.00605622429964 1367.7601435796141 460.786713538608Q1375.1321411933786 456.59107502530793 1379.6833422925515 448.6738814465383Q1384.2345433917249 440.7566878677686 1384.2345433917249 430.8483438081108L1384.2345433917249 430.8483438081108Q1384.2345433917249 418.0006823719038 1374.421016021633 408.1634508294206Q1364.631192823933 398.3262192869373 1351.7124188705511 398.3262192869373L1351.7124188705511 398.3262192869373L1288.2326452060447 398.3262192869373L1288.2326452060447 518.3404441052328L1282.2117854185972 518.3404441052328L1282.2117854185972 392.3290636718813L1351.7124188705511 392.3290636718813Q1361.8103963093413 392.3290636718813 1370.7231651285551 397.66250245997463Q1379.6359339477685 402.99594124806794 1384.9219643910787 411.93241423967316Q1390.2316990067807 420.8451830588869 1390.2316990067807 430.8483438081108L1390.2316990067807 430.8483438081108Q1390.2316990067807 442.1789382112602 1384.8982602186875 451.4709737887383Q1379.5648214305943 460.76300936621647 1370.7705734733381 465.8831106027861Q1361.976325516082 471.0032118393557 1351.7124188705511 471.0032118393557L1351.7124188705511 471.0032118393557L1316.8909896273994 471.0032118393557ZM1316.8909896273994 482.9975230694678L1316.8909896273994 477.00036745441173L1351.7124188705511 477.00036745441173Q1360.6488918621562 477.00036745441173 1368.8031271648415 473.46844576807433Q1376.9810666399176 469.91281990934544 1383.0256305997568 463.8919601218979Q1389.0464903872044 457.8473961620588 1392.6495245907163 449.21907741154337Q1396.228854621837 440.59075866102796 1396.228854621837 430.8483438081108L1396.228854621837 430.8483438081108Q1396.228854621837 419.16218681908856 1390.1368823172147 408.87457600116636Q1384.0686141849837 398.5869651832441 1373.75729919467 392.47128870623044Q1363.4696883767479 386.3319080568252 1351.7124188705511 386.3319080568252L1351.7124188705511 386.3319080568252L1276.2146298035414 386.3319080568252L1276.2146298035414 518.3404441052328L1270.217474188485 518.3404441052328L1270.217474188485 380.3347524417692L1351.7124188705511 380.3347524417692Q1365.0578679269802 380.3347524417692 1376.720320743611 387.3037791248778Q1388.3827735602417 394.24910163559485 1395.3043918985672 405.9115544522256Q1402.2260102368928 417.59771144124784 1402.2260102368928 430.8483438081108L1402.2260102368928 430.8483438081108Q1402.2260102368928 442.67672583148226 1398.1488925855501 452.6324782359231Q1394.0480707618162 462.588230640364 1387.1501565958824 469.1779905652082Q1380.228538257557 475.7677504900523 1371.055023542036 479.3707846935643Q1361.8815088265155 482.9975230694678 1351.7124188705511 482.9975230694678L1351.7124188705511 482.9975230694678L1316.8909896273994 482.9975230694678ZM1312.221267666269 422.33854591955304L1312.221267666269 518.3404441052328L1306.224112051213 518.3404441052328L1306.224112051213 416.341390304497L1351.7124188705511 416.341390304497Q1357.6384619684327 416.341390304497 1361.928917171299 420.6792538521462Q1366.2193723741652 424.99341322740395 1366.2193723741652 430.8483438081108L1366.2193723741652 430.8483438081108Q1366.2193723741652 447.01458937913145 1351.7124188705511 447.01458937913145L1351.7124188705511 447.01458937913145L1316.8909896273994 447.01458937913145L1316.8909896273994 440.9937295916839L1351.7124188705511 440.9937295916839Q1355.718424004719 440.9937295916839 1357.970320381914 438.76553738688045Q1360.222216759109 436.5136410096855 1360.222216759109 430.8483438081108L1360.222216759109 430.8483438081108Q1360.222216759109 427.1741970874243 1357.7569828303904 424.7563715034887Q1355.315453074063 422.33854591955304 1351.7124188705511 422.33854591955304L1351.7124188705511 422.33854591955304L1312.221267666269 422.33854591955304ZM1451.3884637769174 518.3404441052328L1451.3884637769174 380.3347524417692L1457.3856193919733 380.3347524417692L1457.3856193919733 518.3404441052328L1451.3884637769174 518.3404441052328ZM1439.3941525468053 518.3404441052328L1439.3941525468053 380.3347524417692L1445.3913081618612 380.3347524417692L1445.3913081618612 518.3404441052328L1439.3941525468053 518.3404441052328ZM1427.3998413166933 518.3404441052328L1427.3998413166933 380.3347524417692L1433.396996931749 380.3347524417692L1433.396996931749 518.3404441052328L1427.3998413166933 518.3404441052328ZM1415.3818259141894 518.3404441052328L1415.3818259141894 380.3347524417692L1421.402685701637 380.3347524417692L1421.402685701637 518.3404441052328L1415.3818259141894 518.3404441052328ZM1473.2200065495126 518.3404441052328L1473.2200065495126 380.3347524417692L1479.217162164569 380.3347524417692L1479.217162164569 518.3404441052328L1473.2200065495126 518.3404441052328ZM1509.2266444122406 518.3404441052328L1509.2266444122406 380.3347524417692L1515.2238000272964 380.3347524417692L1515.2238000272964 488.3309618575611L1563.2247491201365 488.3309618575611L1563.2247491201365 494.3281174726171L1515.2238000272964 494.3281174726171L1515.2238000272964 500.34897726006466L1563.2247491201365 500.34897726006466L1563.2247491201365 506.3461328751207L1515.2238000272964 506.3461328751207L1515.2238000272964 512.3432884901767L1563.2247491201365 512.3432884901767L1563.2247491201365 518.3404441052328L1509.2266444122406 518.3404441052328ZM1497.2323331821285 518.3404441052328L1497.2323331821285 380.3347524417692L1503.2294887971843 380.3347524417692L1503.2294887971843 518.3404441052328L1497.2323331821285 518.3404441052328ZM1485.2143177796247 518.3404441052328L1485.2143177796247 380.3347524417692L1491.2351775670722 380.3347524417692L1491.2351775670722 518.3404441052328L1485.2143177796247 518.3404441052328ZM1625.0689348896276 426.01269264023955Q1615.3976325538852 435.66029080359056 1615.3976325538852 449.337598273501Q1615.3976325538852 463.0149057434114 1625.0689348896276 472.6625039067625Q1634.74023722537 482.33380624250503 1648.3938405228887 482.33380624250503Q1662.0711479927995 482.33380624250503 1671.7187461561502 472.6625039067625Q1681.3900484918931 463.0149057434114 1681.3900484918931 449.337598273501Q1681.3900484918931 435.66029080359056 1671.7187461561502 426.01269264023955Q1662.0711479927995 416.341390304497 1648.3938405228887 416.341390304497Q1634.74023722537 416.341390304497 1625.0689348896276 426.01269264023955ZM1612.4820193497271 464.46086025929446Q1609.400476938829 457.25479185227067 1609.400476938829 449.337598273501Q1609.400476938829 441.42040469473136 1612.4820193497271 434.2143362877075Q1615.5635617606258 427.00826788068366 1620.8021838591526 421.7459416097649Q1626.0645101300715 416.50731951123765 1633.2705785370954 413.4257771003393Q1640.4766469441192 410.34423468944095 1648.3938405228887 410.34423468944095Q1656.3110341016586 410.34423468944095 1663.5171025086825 413.4257771003393Q1670.7231709157063 416.50731951123765 1675.9854971866248 421.7459416097649Q1681.2241192851525 427.00826788068366 1684.3056616960507 434.2143362877075Q1687.387204106949 441.42040469473136 1687.387204106949 449.337598273501Q1687.387204106949 457.25479185227067 1684.3056616960507 464.46086025929446Q1681.2241192851525 471.66692866631837 1675.9854971866248 476.92925493723715Q1670.7231709157063 482.1678770357643 1663.5171025086825 485.2494194466627Q1656.3110341016586 488.3309618575611 1648.3938405228887 488.3309618575611Q1640.4766469441192 488.3309618575611 1633.2705785370954 485.2494194466627Q1626.0645101300715 482.1678770357643 1620.8021838591526 476.92925493723715Q1615.5635617606258 471.66692866631837 1612.4820193497271 464.46086025929446ZM1609.4478852836119 426.7475219843768Q1603.403321323773 437.0825411470821 1603.403321323773 449.337598273501Q1603.403321323773 461.59265539991986 1609.4478852836119 471.92767456262516Q1615.4687450710594 482.26269372533045 1625.803764233765 488.30725768516953Q1636.13878339647 494.3281174726171 1648.3938405228887 494.3281174726171Q1660.6488976493079 494.3281174726171 1670.983916812013 488.30725768516953Q1681.3189359747184 482.26269372533045 1687.3634999345572 471.92767456262516Q1693.4080638943965 461.59265539991986 1693.4080638943965 449.337598273501Q1693.4080638943965 437.0825411470821 1687.3634999345572 426.7475219843768Q1681.3189359747184 416.4125028216716 1670.983916812013 410.391643034224Q1660.6488976493079 404.3470790743849 1648.3938405228887 404.3470790743849Q1636.13878339647 404.3470790743849 1625.803764233765 410.391643034224Q1615.4687450710594 416.4125028216716 1609.4478852836119 426.7475219843768ZM1604.2329673574764 474.91440028395743Q1597.4061657087168 463.18083495015213 1597.4061657087168 449.337598273501Q1597.4061657087168 435.4943615968499 1604.2329673574764 423.7607962630446Q1611.0597690062355 412.00352675684775 1622.8170385124326 405.1767251080883Q1634.5506038462377 398.3262192869373 1648.3938405228887 398.3262192869373Q1662.2370771995402 398.3262192869373 1673.9706425333452 405.1767251080883Q1685.727912039542 412.00352675684775 1692.5547136883015 423.7607962630446Q1699.4052195094528 435.4943615968499 1699.4052195094528 449.337598273501Q1699.4052195094528 463.18083495015213 1692.5547136883015 474.91440028395743Q1685.727912039542 486.6716697901543 1673.9706425333452 493.4984714389137Q1662.2370771995402 500.34897726006466 1648.3938405228887 500.34897726006466Q1634.5506038462377 500.34897726006466 1622.8170385124326 493.4984714389137Q1611.0597690062355 486.6716697901543 1604.2329673574764 474.91440028395743ZM1595.8890986756592 427.1741970874243Q1591.3853059212693 437.74625797404485 1591.3853059212693 449.337598273501Q1591.3853059212693 460.9289385729571 1595.8890986756592 471.50099945957766Q1600.392891430049 482.0967645185898 1608.0256349401207 489.70580385626954Q1615.6346742778 497.3385473663409 1626.2304393368122 501.8423401207308Q1636.802500223433 506.3461328751207 1648.3938405228887 506.3461328751207Q1659.9851808223452 506.3461328751207 1670.5572417089656 501.8423401207308Q1681.1530067679778 497.3385473663409 1688.7620461056576 489.70580385626954Q1696.3947896157288 482.0967645185898 1700.8985823701187 471.50099945957766Q1705.4023751245086 460.9289385729571 1705.4023751245086 449.337598273501Q1705.4023751245086 437.74625797404485 1700.8985823701187 427.1741970874243Q1696.3947896157288 416.57843202841224 1688.7620461056576 408.96939269073243Q1681.1530067679778 401.33664918066114 1670.5572417089656 396.8328564262712Q1659.9851808223452 392.3290636718813 1648.3938405228887 392.3290636718813Q1636.802500223433 392.3290636718813 1626.2304393368122 396.8328564262712Q1615.6346742778 401.33664918066114 1608.0256349401207 408.96939269073243Q1600.392891430049 416.57843202841224 1595.8890986756592 427.1741970874243ZM1593.8505398499879 480.9115558990135Q1585.3881503062134 466.42830656779114 1585.3881503062134 449.337598273501Q1585.3881503062134 432.24688997921083 1593.8505398499879 417.76364064798855Q1602.3129293937627 403.2566871443747 1616.8198828973764 394.7942976006Q1631.3031322285988 386.3319080568252 1648.3938405228887 386.3319080568252Q1665.484548817179 386.3319080568252 1679.9677981484015 394.7942976006Q1694.4747516520151 403.2566871443747 1702.93714119579 417.76364064798855Q1711.3995307395649 432.24688997921083 1711.3995307395649 449.337598273501Q1711.3995307395649 466.42830656779114 1702.93714119579 480.9115558990135Q1694.4747516520151 495.4185094026273 1679.9677981484015 503.880898946402Q1665.484548817179 512.3432884901767 1648.3938405228887 512.3432884901767Q1631.3031322285988 512.3432884901767 1616.8198828973764 503.880898946402Q1602.3129293937627 495.4185094026273 1593.8505398499879 480.9115558990135ZM1584.842954341208 422.5518834710768Q1579.3909946911572 435.3284323901092 1579.3909946911572 449.337598273501Q1579.3909946911572 463.3467641568928 1584.842954341208 476.12331307592524Q1590.3186181636506 488.92356616734924 1599.5632453963458 498.1681934000443Q1608.8078726290405 507.4128206327394 1621.6081257204646 512.8884844551819Q1634.384674639497 518.3404441052328 1648.3938405228887 518.3404441052328Q1662.4030064062808 518.3404441052328 1675.1795553253132 512.8884844551819Q1687.979808416737 507.4128206327394 1697.224435649432 498.1681934000443Q1706.4690628821272 488.92356616734924 1711.9447267045698 476.12331307592524Q1717.3966863546207 463.3467641568928 1717.3966863546207 449.337598273501Q1717.3966863546207 435.3284323901092 1711.9447267045698 422.5518834710768Q1706.4690628821272 409.7516303796528 1697.224435649432 400.5070031469577Q1687.979808416737 391.2623759142626 1675.1795553253132 385.7867120918201Q1662.4030064062808 380.3347524417692 1648.3938405228887 380.3347524417692Q1634.384674639497 380.3347524417692 1621.6081257204646 385.7867120918201Q1608.8078726290405 391.2623759142626 1599.5632453963458 400.5070031469577Q1590.3186181636506 409.7516303796528 1584.842954341208 422.5518834710768ZM1579.3435863463742 478.4700261426863Q1573.393839076101 464.57938112125214 1573.393839076101 449.337598273501Q1573.393839076101 434.0958154257499 1579.3435863463742 420.2051704043157Q1585.3170377890387 406.3382295552731 1595.3439027106542 396.28766046126606Q1605.394471804661 386.26079553965064 1619.2614126537037 380.28734409698615Q1633.1520576751377 374.33759682671314 1648.3938405228887 374.33759682671314Q1663.6356233706401 374.33759682671314 1677.5262683920741 380.28734409698615Q1691.393209241117 386.26079553965064 1701.4437783351236 396.28766046126606Q1711.470643256739 406.3382295552731 1717.4440946994036 420.2051704043157Q1723.3938419696765 434.0958154257499 1723.3938419696765 449.337598273501Q1723.3938419696765 464.57938112125214 1717.4440946994036 478.4700261426863Q1711.470643256739 492.33696699172896 1701.4437783351236 502.38753608573586Q1691.393209241117 512.4144010073513 1677.5262683920741 518.3878524500159Q1663.6356233706401 524.3375997202888 1648.3938405228887 524.3375997202888Q1633.1520576751377 524.3375997202888 1619.2614126537037 518.3878524500159Q1605.394471804661 512.4144010073513 1595.3439027106542 502.38753608573586Q1585.3170377890387 492.33696699172896 1579.3435863463742 478.4700261426863ZM1823.1409993932175 386.3319080568252L1733.136256822594 386.3319080568252L1733.136256822594 380.3347524417692L1823.1409993932175 380.3347524417692L1823.1409993932175 386.3319080568252ZM1823.1409993932175 398.3262192869373L1733.136256822594 398.3262192869373L1733.136256822594 392.3290636718813L1823.1409993932175 392.3290636718813L1823.1409993932175 398.3262192869373ZM1757.1485834552095 410.34423468944095L1733.136256822594 410.34423468944095L1733.136256822594 404.3470790743849L1823.1409993932175 404.3470790743849L1823.1409993932175 410.34423468944095L1799.1523769329933 410.34423468944095L1799.1523769329933 518.3404441052328L1793.1552213179375 518.3404441052328L1793.1552213179375 410.34423468944095L1787.1580657028812 410.34423468944095L1787.1580657028812 518.3404441052328L1781.1372059154337 518.3404441052328L1781.1372059154337 410.34423468944095L1775.1400503003779 410.34423468944095L1775.1400503003779 518.3404441052328L1769.1428946853216 518.3404441052328L1769.1428946853216 410.34423468944095L1763.1457390702658 410.34423468944095L1763.1457390702658 518.3404441052328L1757.1485834552095 518.3404441052328L1757.1485834552095 410.34423468944095Z " fill="#fbf8be" transform="matrix(0.4799409447665619,0,0,0.4799409447665619,0,84.34448154425245)"/></g></svg>